<svg xmlns="http://www.w3.org/2000/svg" viewBox="0 0 48 48">
  <path fill="#FFC107" d="M43.611 20.083H42V20H24v8h11.303C33.826 31.658 29.34 35 24 35c-6.627 0-12-5.373-12-12s5.373-12 12-12c3.059 0 5.842 1.153 7.961 3.039l5.657-5.657C34.046 5.1 29.268 3 24 3 12.954 3 4 11.954 4 23s8.954 20 20 20 20-8.954 20-20c0-1.341-.138-2.65-.389-3.917z"/>
  <path fill="#FF3D00" d="M6.306 14.691l6.571 4.816C14.64 16.087 18.961 13 24 13c3.059 0 5.842 1.153 7.961 3.039l5.657-5.657C34.046 5.1 29.268 3 24 3 16.318 3 9.754 7.337 6.306 14.691z"/>
  <path fill="#4CAF50" d="M24 43c5.258 0 10.087-2.017 13.73-5.303l-6.332-5.355C29.405 33.955 26.846 35 24 35c-5.315 0-9.818-3.318-11.45-7.946l-6.6 5.086C8.36 38.641 15.605 43 24 43z"/>
  <path fill="#1976D2" d="M43.611 20.083H42V20H24v8h11.303c-1.09 3.167-3.495 5.639-6.605 7.071l6.332 5.355C37.708 37.565 40 32.744 40 27c0-1.341-.138-2.65-.389-3.917z"/>
</svg>
